<svg xmlns="http://www.w3.org/2000/svg"  viewBox="0 0 64 64" width="100px" height="100px"><linearGradient id="QwFloCeICZWOSNB7HdNEba" x1="32.129" x2="32.129" y1="51" y2="13.99" gradientTransform="matrix(1 0 0 -1 0 66)" gradientUnits="userSpaceOnUse"><stop offset="0" stop-color="#6dc7ff"/><stop offset=".881" stop-color="#e6abff"/></linearGradient><path fill="url(#QwFloCeICZWOSNB7HdNEba)" d="M48.907,30.734c0,1.25-1.017,2.266-2.266,2.266c-1.08,0-1.812-0.559-2.178-1.661	c-2.654-8.001-5.794-14.112-5.825-14.173c-0.128-0.248-0.354-0.431-0.622-0.505l-5.875-1.625c-0.444-0.122-0.913,0.072-1.138,0.474	l-0.898,1.596l-3.421,0.662c-0.321,0.062-0.592,0.278-0.725,0.578l-1.875,4.25c-0.17,0.385-0.08,0.835,0.225,1.126	c0.306,0.291,0.759,0.36,1.137,0.172C25.464,23.886,27.27,23,29,23c1.139,0,2.643,0.253,3.328,1.471C33.258,26.52,34,28.6,34,30	c0,3.083-1.875,4.952-5.016,5c-1.029,0.016-3.605-0.159-5.595-2.116C21.804,31.322,21,29.006,21,26c0-2.839,0.961-6.719,0.97-6.758	c0.105-0.422-0.074-0.864-0.444-1.093s-0.846-0.192-1.176,0.091l-7,6l1.301,1.519l4.783-4.099C19.206,22.995,19,24.591,19,26	c0,3.562,1.005,6.357,2.987,8.309c2.438,2.4,5.528,2.692,6.886,2.692c0.05,0,0.098,0,0.143-0.001C33.259,36.934,36,34.187,36,30	c0-2.707-2.011-6.92-3.52-9.702l0.87,0.652C33.395,20.984,33.447,21,33.5,21c0.071,0,0.143-0.031,0.192-0.09l1.25-1.5	c0.062-0.075,0.075-0.178,0.034-0.266S34.847,19,34.75,19h-2.995c-0.073-0.128-0.147-0.255-0.213-0.37l0.821-1.458l4.692,1.298	c0.481,0.968,1.793,3.695,3.277,7.407C40.425,26.16,41,28.014,41,30.5C41,37.691,34.282,44,26.625,44	c-7.151,0-9.446-3.285-9.535-3.417l-1.68,1.084C15.523,41.844,18.301,46,26.625,46c7.747,0,14.636-5.716,16.083-12.779	C42.875,34.142,43,35.147,43,36.125c0,8.858-3.9,12.106-7.716,14.115l0.932,1.77C40.306,49.856,45,46.105,45,36.125	c0-0.491-0.032-0.983-0.077-1.47C45.441,34.874,46.014,35,46.642,35c2.353,0,4.266-1.914,4.266-4.266	C50.908,30.734,48.907,30.734,48.907,30.734z M29,21c-0.75,0-1.493,0.122-2.15,0.285l0.729-1.653l2.006-0.388	c0.322,0.542,0.7,1.203,1.1,1.941C30.16,21.072,29.604,21,29,21z"/><linearGradient id="QwFloCeICZWOSNB7HdNEbb" x1="32" x2="32" y1="2.923" y2="60.668" gradientUnits="userSpaceOnUse"><stop offset="0" stop-color="#1a6dff"/><stop offset="1" stop-color="#c822ff"/></linearGradient><path fill="url(#QwFloCeICZWOSNB7HdNEbb)" d="M32,54.498	c-0.203,0-0.406-0.062-0.579-0.185c-1.976-1.404-3.959-2.476-5.878-3.512C18.535,47.012,13,44.021,13,27V14.95	c0-0.274,0.112-0.536,0.312-0.725s0.463-0.292,0.74-0.273C14.657,13.982,15.307,14,16,14c7.388,0,12.477-2.357,15.445-4.335	c0.336-0.224,0.773-0.224,1.109,0C35.523,11.643,40.612,14,48,14c0.693,0,1.343-0.018,1.948-0.049	c0.268-0.02,0.541,0.084,0.74,0.273c0.2,0.19,0.312,0.451,0.312,0.726V27c0,17.021-5.535,20.012-12.543,23.8	c-1.919,1.037-3.902,2.109-5.878,3.513C32.406,54.436,32.203,54.498,32,54.498z M15,15.988V27c0,15.828,4.572,18.299,11.494,22.041	c1.705,0.921,3.616,1.955,5.506,3.239c1.89-1.285,3.801-2.318,5.506-3.239C44.428,45.299,49,42.828,49,27V15.988	C48.677,15.996,48.344,16,48,16c-7.449,0-12.74-2.266-16-4.312C28.74,13.734,23.449,16,16,16C15.656,16,15.323,15.996,15,15.988z"/><linearGradient id="QwFloCeICZWOSNB7HdNEbc" x1="32" x2="32" y1="2.923" y2="60.668" gradientUnits="userSpaceOnUse"><stop offset="0" stop-color="#1a6dff"/><stop offset="1" stop-color="#c822ff"/></linearGradient><path fill="url(#QwFloCeICZWOSNB7HdNEbc)" d="M32,61c-0.256,0-0.512-0.098-0.707-0.293	c-2.429-2.428-5.325-3.994-8.127-5.508C15.71,51.169,8,47.001,8,27V9c0-0.347,0.18-0.668,0.475-0.851	c0.294-0.182,0.662-0.198,0.973-0.044C9.458,8.11,11.376,9,16,9c10.411,0,15.185-5.584,15.231-5.64c0.381-0.456,1.156-0.456,1.537,0	C32.813,3.414,37.649,9,48,9c4.635,0,6.535-0.885,6.553-0.895c0.31-0.155,0.678-0.139,0.973,0.044C55.82,8.332,56,8.653,56,9v18	c0,20.001-7.71,24.169-15.166,28.199c-2.802,1.514-5.698,3.08-8.127,5.508C32.512,60.902,32.256,61,32,61z M10,10.376V27	c0,18.809,6.857,22.516,14.117,26.439c2.669,1.442,5.421,2.93,7.883,5.178c2.462-2.248,5.214-3.735,7.883-5.178	C47.143,49.516,54,45.809,54,27V10.376C52.817,10.674,50.869,11,48,11c-9.021,0-14.165-3.862-16-5.571C30.165,7.138,25.021,11,16,11	C13.131,11,11.183,10.674,10,10.376z"/></svg>